<svg width="28" height="24" viewBox="0 0 28 24" fill="none" xmlns="http://www.w3.org/2000/svg">
<path id="Vector" d="M6.6365 15.082L3.64051 12.0666C2.99248 11.4144 2.41048 10.6695 2.19112 9.77389C2.06623 9.26399 2 8.731 2 8.18251C2 4.50804 4.97253 1.5293 8.63933 1.5293C9.66597 1.5293 10.6382 1.7628 11.506 2.17971M26 8.1766C26 4.50542 23.05 1.52934 19.411 1.52934C17.1984 1.52934 15.2406 2.62952 14.0456 4.31721L9.97557 7.63328C9.07328 8.36842 9.00235 9.72829 9.82321 10.5545C10.5273 11.2632 11.6481 11.3261 12.4262 10.7005L15.243 8.43578C15.9658 7.85468 17.007 7.9131 17.6611 8.57146C18.4022 9.31736 18.364 10.538 17.5778 11.2356L9.76796 18.1651L14.0456 22.4705L24.3612 12.0637C25.0114 11.4078 25.5946 10.6584 25.8124 9.75817C25.935 9.25127 26 8.7216 26 8.1766Z" stroke="url(#paint0_linear_2342_12863)" stroke-width="3" stroke-linecap="round" stroke-linejoin="round"/>
<defs>
<linearGradient id="paint0_linear_2342_12863" x1="2" y1="22.4705" x2="27.2723" y2="20.8022" gradientUnits="userSpaceOnUse">
<stop stop-color="#B272FB"/>
<stop offset="1" stop-color="#D857FC"/>
</linearGradient>
</defs>
</svg>
